HIERARCHY
ROOT Hips
{
	OFFSET -0.179506 -22.333345 2.821913
	CHANNELS 6 Xposition Yposition Zposition Zrotation Yrotation Xrotation 
	JOINT LeftUpLeg
	{
		OFFSET 6.951974 -9.140623 -0.681533
		CHANNELS 3 Zrotation Yrotation Xrotation
		JOINT LeftLeg
		{
			OFFSET 3.427654 -37.519855 -0.449580
			CHANNELS 3 Zrotation Yrotation Xrotation
			JOINT LeftFoot
			{
				OFFSET -1.359570 -39.796059 -4.369333
				CHANNELS 3 Zrotation Yrotation Xrotation
				JOINT LeftToe
				{
					OFFSET 2.635814 -5.579078 11.928840
					CHANNELS 3 Zrotation Yrotation Xrotation
					End Site
					{
						OFFSET 0.000000 0.000000 0.000000
					}
				}
			}
		}
	}
	JOINT RightUpLeg
	{
		OFFSET -6.767048 -9.052170 -0.431982
		CHANNELS 3 Zrotation Yrotation Xrotation
		JOINT RightLeg
		{
			OFFSET -3.829005 -38.256897 -0.885003
			CHANNELS 3 Zrotation Yrotation Xrotation
			JOINT RightFoot
			{
				OFFSET 1.577377 -39.841461 -4.231180
				CHANNELS 3 Zrotation Yrotation Xrotation
				JOINT RightToe
				{
					OFFSET -2.537174 -4.814398 12.334795
					CHANNELS 3 Zrotation Yrotation Xrotation
					End Site
					{
						OFFSET 0.000000 0.000000 0.000000
					}
				}
			}
		}
	}
	JOINT Spine
	{
		OFFSET -0.253288 10.896323 -2.669631
		CHANNELS 3 Zrotation Yrotation Xrotation
		JOINT Spine1
		{
			OFFSET 0.548704 13.518043 0.109247
			CHANNELS 3 Zrotation Yrotation Xrotation
			JOINT Spine2
			{
				OFFSET 0.145701 5.292222 2.542457
				CHANNELS 3 Zrotation Yrotation Xrotation
				JOINT Neck
				{
					OFFSET -0.277840 21.387037 -4.285703
					CHANNELS 3 Zrotation Yrotation Xrotation
					JOINT Head
					{
						OFFSET 0.515184 6.496960 5.134897
						CHANNELS 3 Zrotation Yrotation Xrotation
						End Site
						{
							OFFSET 0.000000 0.000000 0.000000
						}
					}
				}
				JOINT LeftShoulder
				{
					OFFSET 7.884473 12.174932 -3.408961
					CHANNELS 3 Zrotation Yrotation Xrotation
					JOINT LeftArm
					{
						OFFSET 9.097692 3.046888 -0.886815
						CHANNELS 3 Zrotation Yrotation Xrotation
						JOINT LeftForeArm
						{
							OFFSET 25.961220 -1.277207 -2.745643
							CHANNELS 3 Zrotation Yrotation Xrotation
							JOINT LeftHand
							{
								OFFSET 24.923361 0.898606 -0.117091
								CHANNELS 3 Zrotation Yrotation Xrotation
								End Site
								{
									OFFSET 0.000000 0.000000 0.000000
								}
							}
						}
					}
				}
				JOINT RightShoulder
				{
					OFFSET -8.175920 11.883285 -3.861528
					CHANNELS 3 Zrotation Yrotation Xrotation
					JOINT RightArm
					{
						OFFSET -9.601238 3.255117 -0.914307
						CHANNELS 3 Zrotation Yrotation Xrotation
						JOINT RightForeArm
						{
							OFFSET -25.374195 -1.332924 -2.140099
							CHANNELS 3 Zrotation Yrotation Xrotation
							JOINT RightHand
							{
								OFFSET -25.529810 0.777228 -0.555919
								CHANNELS 3 Zrotation Yrotation Xrotation
								End Site
								{
									OFFSET 0.000000 0.000000 0.000000
								}
							}
						}
					}
				}
			}
		}
	}
}
MOTION
Frames: 5
Frame Time: 0.033333
3.045564 105.683853 17.807178 4.057633 -39.385546 -5.259362 12.285250 2.298112 -30.203242 -7.481020 -3.582138 26.078047 -5.810483 7.907730 4.347863 0.017217 0.298530 -1.453034 -9.760934 -5.611552 -21.777822 1.445419 -4.474750 25.078084 3.448105 -7.261666 -5.496964 2.158639 -0.863632 -1.491672 0.253763 0.194256 23.541587 -3.320100 -1.528534 -4.231418 -0.016506 -1.357246 3.997472 -9.943780 -5.670341 8.205741 4.795428 -2.635131 -9.144133 -15.420177 3.354171 -1.304910 -26.330646 -5.189487 -2.919809 40.285135 -55.828779 -38.220921 22.797918 -18.463460 -17.424981 9.291960 -0.130817 3.919678 37.959015 -8.016145 2.463238 -5.696635 41.868840 -0.769018 -12.152591 15.454893 -7.698217 
1.722553 102.012527 17.251127 1.714753 -35.676088 -3.893154 7.340804 -2.216081 -27.306601 -6.824490 -4.186863 24.699202 -2.783926 6.982235 -4.479813 1.142512 0.279109 -1.431544 -4.739687 -1.464859 -22.005238 1.849876 -4.998164 30.245616 -0.434427 -7.289694 -14.508557 3.197447 -1.176273 -1.360193 1.305607 0.108950 23.539912 -1.387879 -1.496350 -2.593702 -0.429286 -1.288043 2.054799 -7.484448 -3.916606 4.281044 2.566079 -2.508882 -7.599608 -20.565827 1.452197 -0.728537 -37.684093 -9.151435 4.394940 32.098359 -54.542977 -28.797599 17.085705 -18.681086 -17.673269 15.335876 2.889272 3.474820 43.631320 -3.008112 7.778610 -5.644607 41.974948 0.821557 -8.743989 15.330892 -4.276826 
0.026131 98.279099 17.045843 -0.267859 -36.660469 -2.186602 6.463911 -5.047844 -26.500574 -4.471369 -6.666474 25.443422 -0.155135 7.937132 -13.317451 2.582076 0.339327 -1.427454 0.036619 2.644118 -23.145222 2.839522 -4.393949 37.191540 -3.558246 -7.432731 -24.902410 4.055273 -1.498447 -0.841124 1.240997 0.699443 24.248281 0.572258 -0.926129 -1.169425 -0.863210 -0.731581 0.265525 -4.543596 -1.068274 0.243180 -0.111568 -3.655972 -6.048416 -25.479390 0.290929 0.005995 -47.284351 -8.061152 8.723469 15.120028 -38.615591 -12.058596 14.201843 -16.994167 -14.403879 20.808255 7.324079 1.410886 47.333411 4.801623 13.004078 -5.464235 43.064492 3.525402 -11.109616 17.338081 -3.752572 
-2.036944 96.745949 16.828312 -2.050559 -36.132807 -1.660954 6.243524 -6.189258 -27.315987 -3.354950 -6.470834 31.712381 1.875587 9.804124 -19.700840 3.184319 0.242081 -1.329775 3.430097 4.851053 -22.176839 2.502532 -3.395245 39.194693 -4.887863 -8.913943 -28.801458 4.401149 -1.561223 -0.826760 1.428213 1.356689 23.442774 1.924759 -0.940057 0.019700 -0.926788 -0.594818 0.184925 -2.690219 0.148495 -1.569119 -1.622005 -4.092706 -3.626750 -27.696282 -0.465430 1.554109 -51.563996 -5.555349 10.893960 6.062688 -27.939036 0.113459 11.920001 -14.576039 -11.168079 21.684941 11.035959 -0.295803 50.253058 11.977176 18.166487 -4.391985 57.145530 9.606219 -15.093296 17.238565 -12.157673 
-3.428262 98.788277 17.323162 -2.137019 -32.581494 -1.313714 5.188376 -6.082129 -26.552343 -2.868060 -5.980369 32.479324 1.444933 7.958421 -17.100204 3.005670 0.569617 -1.260485 4.284221 4.410861 -18.068085 1.879110 -1.382807 32.439843 -5.080205 -8.514231 -22.504541 5.916724 -1.931630 -1.073195 0.680936 2.775915 19.843545 2.099955 -0.448575 1.773744 -1.056460 -0.752617 -0.974484 -1.406676 -0.356839 -0.761218 -2.570652 -6.744440 -1.054996 -27.156441 1.465566 4.483755 -52.442890 1.213836 12.069673 -1.160982 -29.420500 11.879756 7.355659 -14.952173 -10.867016 17.471589 12.775474 -2.379755 55.797523 14.758322 22.876944 57.762757 89.169907 75.508897 -17.601988 14.910625 -29.673329 
